<?xml version="1.0" encoding="UTF-8"?>
<mxfile host="app.diagrams.net" modified="2024-01-20T12:00:00.000Z" agent="5.0" version="22.1.11" etag="abc123" type="device">
  <diagram name="Blue-Green CI/CD Architecture" id="blue-green-cicd">
    <mxGraphModel dx="1422" dy="791" grid="1" gridSize="10" guides="1" tooltips="1" connect="1" arrows="1" fold="1" page="1" pageScale="1" pageWidth="1169" pageHeight="827" math="0" shadow="0">
      <root>
        <mxCell id="0" />
        <mxCell id="1" parent="0" />
        
        <!-- Title -->
        <mxCell id="title" value="Blue-Green CI/CD Pipeline for Java Todo Microservice" style="text;html=1;strokeColor=none;fillColor=none;align=center;verticalAlign=middle;whiteSpace=wrap;rounded=0;fontSize=18;fontStyle=1;" vertex="1" parent="1">
          <mxGeometry x="300" y="20" width="569" height="30" as="geometry" />
        </mxCell>
        
        <!-- Developer -->
        <mxCell id="developer" value="Developer" style="shape=umlActor;verticalLabelPosition=bottom;verticalAlign=top;html=1;outlineConnect=0;fillColor=#dae8fc;strokeColor=#6c8ebf;" vertex="1" parent="1">
          <mxGeometry x="50" y="100" width="30" height="60" as="geometry" />
        </mxCell>
        
        <!-- GitHub Repository -->
        <mxCell id="github" value="GitHub&#xa;Repository&#xa;(todo-microservice)" style="rounded=1;whiteSpace=wrap;html=1;fillColor=#f8cecc;strokeColor=#b85450;" vertex="1" parent="1">
          <mxGeometry x="150" y="110" width="100" height="60" as="geometry" />
        </mxCell>
        
        <!-- AWS Cloud Container -->
        <mxCell id="aws-cloud" value="AWS Cloud" style="rounded=1;whiteSpace=wrap;html=1;fillColor=#e1d5e7;strokeColor=#9673a6;dashed=1;dashPattern=5 5;verticalAlign=top;fontSize=14;fontStyle=1;" vertex="1" parent="1">
          <mxGeometry x="300" y="80" width="800" height="680" as="geometry" />
        </mxCell>
        
        <!-- CI/CD Pipeline Section -->
        <mxCell id="cicd-section" value="CI/CD Pipeline" style="rounded=1;whiteSpace=wrap;html=1;fillColor=#fff2cc;strokeColor=#d6b656;dashed=1;dashPattern=3 3;verticalAlign=top;fontSize=12;fontStyle=1;" vertex="1" parent="1">
          <mxGeometry x="320" y="110" width="760" height="120" as="geometry" />
        </mxCell>
        
        <!-- CodePipeline -->
        <mxCell id="codepipeline" value="AWS CodePipeline&#xa;(todo-pipeline)" style="rounded=1;whiteSpace=wrap;html=1;fillColor=#d5e8d4;strokeColor=#82b366;" vertex="1" parent="1">
          <mxGeometry x="340" y="140" width="120" height="60" as="geometry" />
        </mxCell>
        
        <!-- CodeBuild -->
        <mxCell id="codebuild" value="AWS CodeBuild&#xa;(todo-build)" style="rounded=1;whiteSpace=wrap;html=1;fillColor=#d5e8d4;strokeColor=#82b366;" vertex="1" parent="1">
          <mxGeometry x="500" y="140" width="120" height="60" as="geometry" />
        </mxCell>
        
        <!-- ECR -->
        <mxCell id="ecr" value="Amazon ECR&#xa;(todo-microservice)" style="rounded=1;whiteSpace=wrap;html=1;fillColor=#d5e8d4;strokeColor=#82b366;" vertex="1" parent="1">
          <mxGeometry x="660" y="140" width="120" height="60" as="geometry" />
        </mxCell>
        
        <!-- CodeDeploy -->
        <mxCell id="codedeploy" value="AWS CodeDeploy&#xa;(todo-app)" style="rounded=1;whiteSpace=wrap;html=1;fillColor=#d5e8d4;strokeColor=#82b366;" vertex="1" parent="1">
          <mxGeometry x="820" y="140" width="120" height="60" as="geometry" />
        </mxCell>
        
        <!-- Infrastructure Section -->
        <mxCell id="infra-section" value="Infrastructure" style="rounded=1;whiteSpace=wrap;html=1;fillColor=#f0f0f0;strokeColor=#666666;dashed=1;dashPattern=3 3;verticalAlign=top;fontSize=12;fontStyle=1;" vertex="1" parent="1">
          <mxGeometry x="320" y="260" width="760" height="480" as="geometry" />
        </mxCell>
        
        <!-- VPC -->
        <mxCell id="vpc" value="VPC" style="rounded=1;whiteSpace=wrap;html=1;fillColor=#e1d5e7;strokeColor=#9673a6;dashed=1;dashPattern=3 3;verticalAlign=top;fontSize=12;fontStyle=1;" vertex="1" parent="1">
          <mxGeometry x="340" y="290" width="720" height="430" as="geometry" />
        </mxCell>
        
        <!-- Application Load Balancer -->
        <mxCell id="alb" value="Application Load Balancer&#xa;(todo-alb)" style="rounded=1;whiteSpace=wrap;html=1;fillColor=#ffe6cc;strokeColor=#d79b00;" vertex="1" parent="1">
          <mxGeometry x="500" y="320" width="160" height="60" as="geometry" />
        </mxCell>
        
        <!-- ECS Cluster -->
        <mxCell id="ecs-cluster" value="Amazon ECS Cluster (todo-cluster)" style="rounded=1;whiteSpace=wrap;html=1;fillColor=#dae8fc;strokeColor=#6c8ebf;dashed=1;dashPattern=3 3;verticalAlign=top;fontSize=12;fontStyle=1;" vertex="1" parent="1">
          <mxGeometry x="360" y="420" width="680" height="280" as="geometry" />
        </mxCell>
        
        <!-- ECS Service -->
        <mxCell id="ecs-service" value="ECS Service (todo-service)" style="rounded=1;whiteSpace=wrap;html=1;fillColor=#d5e8d4;strokeColor=#82b366;" vertex="1" parent="1">
          <mxGeometry x="380" y="450" width="140" height="40" as="geometry" />
        </mxCell>
        
        <!-- Blue Environment -->
        <mxCell id="blue-env" value="Blue Environment" style="rounded=1;whiteSpace=wrap;html=1;fillColor=#cce5ff;strokeColor=#0066cc;dashed=1;dashPattern=3 3;verticalAlign=top;fontSize=11;fontStyle=1;" vertex="1" parent="1">
          <mxGeometry x="380" y="520" width="300" height="160" as="geometry" />
        </mxCell>
        
        <!-- Blue Target Group -->
        <mxCell id="blue-tg" value="Blue Target Group&#xa;(todo-blue-tg)" style="rounded=1;whiteSpace=wrap;html=1;fillColor=#b3d9ff;strokeColor=#0066cc;" vertex="1" parent="1">
          <mxGeometry x="400" y="550" width="120" height="40" as="geometry" />
        </mxCell>
        
        <!-- Blue Tasks -->
        <mxCell id="blue-task1" value="Task 1&#xa;(Blue)" style="rounded=1;whiteSpace=wrap;html=1;fillColor=#99ccff;strokeColor=#0066cc;" vertex="1" parent="1">
          <mxGeometry x="400" y="610" width="50" height="50" as="geometry" />
        </mxCell>
        
        <mxCell id="blue-task2" value="Task 2&#xa;(Blue)" style="rounded=1;whiteSpace=wrap;html=1;fillColor=#99ccff;strokeColor=#0066cc;" vertex="1" parent="1">
          <mxGeometry x="470" y="610" width="50" height="50" as="geometry" />
        </mxCell>
        
        <!-- Green Environment -->
        <mxCell id="green-env" value="Green Environment" style="rounded=1;whiteSpace=wrap;html=1;fillColor=#ccffcc;strokeColor=#00cc00;dashed=1;dashPattern=3 3;verticalAlign=top;fontSize=11;fontStyle=1;" vertex="1" parent="1">
          <mxGeometry x="720" y="520" width="300" height="160" as="geometry" />
        </mxCell>
        
        <!-- Green Target Group -->
        <mxCell id="green-tg" value="Green Target Group&#xa;(todo-green-tg)" style="rounded=1;whiteSpace=wrap;html=1;fillColor=#b3ffb3;strokeColor=#00cc00;" vertex="1" parent="1">
          <mxGeometry x="740" y="550" width="120" height="40" as="geometry" />
        </mxCell>
        
        <!-- Green Tasks -->
        <mxCell id="green-task1" value="Task 1&#xa;(Green)" style="rounded=1;whiteSpace=wrap;html=1;fillColor=#99ff99;strokeColor=#00cc00;" vertex="1" parent="1">
          <mxGeometry x="740" y="610" width="50" height="50" as="geometry" />
        </mxCell>
        
        <mxCell id="green-task2" value="Task 2&#xa;(Green)" style="rounded=1;whiteSpace=wrap;html=1;fillColor=#99ff99;strokeColor=#00cc00;" vertex="1" parent="1">
          <mxGeometry x="810" y="610" width="50" height="50" as="geometry" />
        </mxCell>
        
        <!-- Users -->
        <mxCell id="users" value="Users" style="shape=umlActor;verticalLabelPosition=bottom;verticalAlign=top;html=1;outlineConnect=0;fillColor=#ffe6cc;strokeColor=#d79b00;" vertex="1" parent="1">
          <mxGeometry x="50" y="320" width="30" height="60" as="geometry" />
        </mxCell>
        
        <!-- Arrows/Connections -->
        <mxCell id="arrow1" value="" style="endArrow=classic;html=1;rounded=0;" edge="1" parent="1" source="developer" target="github">
          <mxGeometry width="50" height="50" relative="1" as="geometry">
            <mxPoint x="100" y="130" as="sourcePoint" />
            <mxPoint x="150" y="130" as="targetPoint" />
          </mxGeometry>
        </mxCell>
        
        <mxCell id="arrow2" value="" style="endArrow=classic;html=1;rounded=0;" edge="1" parent="1" source="github" target="codepipeline">
          <mxGeometry width="50" height="50" relative="1" as="geometry">
            <mxPoint x="250" y="140" as="sourcePoint" />
            <mxPoint x="340" y="170" as="targetPoint" />
          </mxGeometry>
        </mxCell>
        
        <mxCell id="arrow3" value="" style="endArrow=classic;html=1;rounded=0;" edge="1" parent="1" source="codepipeline" target="codebuild">
          <mxGeometry width="50" height="50" relative="1" as="geometry">
            <mxPoint x="460" y="170" as="sourcePoint" />
            <mxPoint x="500" y="170" as="targetPoint" />
          </mxGeometry>
        </mxCell>
        
        <mxCell id="arrow4" value="" style="endArrow=classic;html=1;rounded=0;" edge="1" parent="1" source="codebuild" target="ecr">
          <mxGeometry width="50" height="50" relative="1" as="geometry">
            <mxPoint x="620" y="170" as="sourcePoint" />
            <mxPoint x="660" y="170" as="targetPoint" />
          </mxGeometry>
        </mxCell>
        
        <mxCell id="arrow5" value="" style="endArrow=classic;html=1;rounded=0;" edge="1" parent="1" source="codepipeline" target="codedeploy">
          <mxGeometry width="50" height="50" relative="1" as="geometry">
            <mxPoint x="460" y="170" as="sourcePoint" />
            <mxPoint x="820" y="170" as="targetPoint" />
          </mxGeometry>
        </mxCell>
        
        <mxCell id="arrow6" value="" style="endArrow=classic;html=1;rounded=0;" edge="1" parent="1" source="users" target="alb">
          <mxGeometry width="50" height="50" relative="1" as="geometry">
            <mxPoint x="100" y="350" as="sourcePoint" />
            <mxPoint x="500" y="350" as="targetPoint" />
          </mxGeometry>
        </mxCell>
        
        <mxCell id="arrow7" value="" style="endArrow=classic;html=1;rounded=0;" edge="1" parent="1" source="alb" target="blue-tg">
          <mxGeometry width="50" height="50" relative="1" as="geometry">
            <mxPoint x="580" y="380" as="sourcePoint" />
            <mxPoint x="460" y="550" as="targetPoint" />
          </mxGeometry>
        </mxCell>
        
        <mxCell id="arrow8" value="" style="endArrow=classic;html=1;rounded=0;dashed=1;" edge="1" parent="1" source="alb" target="green-tg">
          <mxGeometry width="50" height="50" relative="1" as="geometry">
            <mxPoint x="580" y="380" as="sourcePoint" />
            <mxPoint x="800" y="550" as="targetPoint" />
          </mxGeometry>
        </mxCell>
        
        <!-- Labels -->
        <mxCell id="label1" value="1. Code Push" style="text;html=1;strokeColor=none;fillColor=none;align=center;verticalAlign=middle;whiteSpace=wrap;rounded=0;fontSize=10;" vertex="1" parent="1">
          <mxGeometry x="90" y="110" width="60" height="20" as="geometry" />
        </mxCell>
        
        <mxCell id="label2" value="2. Trigger Pipeline" style="text;html=1;strokeColor=none;fillColor=none;align=center;verticalAlign=middle;whiteSpace=wrap;rounded=0;fontSize=10;" vertex="1" parent="1">
          <mxGeometry x="260" y="150" width="70" height="20" as="geometry" />
        </mxCell>
        
        <mxCell id="label3" value="3. Build &amp; Test" style="text;html=1;strokeColor=none;fillColor=none;align=center;verticalAlign=middle;whiteSpace=wrap;rounded=0;fontSize=10;" vertex="1" parent="1">
          <mxGeometry x="470" y="120" width="60" height="20" as="geometry" />
        </mxCell>
        
        <mxCell id="label4" value="4. Push Image" style="text;html=1;strokeColor=none;fillColor=none;align=center;verticalAlign=middle;whiteSpace=wrap;rounded=0;fontSize=10;" vertex="1" parent="1">
          <mxGeometry x="620" y="120" width="60" height="20" as="geometry" />
        </mxCell>
        
        <mxCell id="label5" value="5. Deploy" style="text;html=1;strokeColor=none;fillColor=none;align=center;verticalAlign=middle;whiteSpace=wrap;rounded=0;fontSize=10;" vertex="1" parent="1">
          <mxGeometry x="780" y="120" width="60" height="20" as="geometry" />
        </mxCell>
        
        <mxCell id="label6" value="Active Traffic" style="text;html=1;strokeColor=none;fillColor=none;align=center;verticalAlign=middle;whiteSpace=wrap;rounded=0;fontSize=10;fontColor=#0066cc;" vertex="1" parent="1">
          <mxGeometry x="300" y="450" width="70" height="20" as="geometry" />
        </mxCell>
        
        <mxCell id="label7" value="Standby" style="text;html=1;strokeColor=none;fillColor=none;align=center;verticalAlign=middle;whiteSpace=wrap;rounded=0;fontSize=10;fontColor=#00cc00;fontStyle=2;" vertex="1" parent="1">
          <mxGeometry x="680" y="450" width="50" height="20" as="geometry" />
        </mxCell>
        
      </root>
    </mxGraphModel>
  </diagram>
</mxfile>
